<svg width="800" height="800" viewBox="0 0 800 800" fill="none" xmlns="http://www.w3.org/2000/svg">
<path d="M300 400C300 418.41 285.076 433.333 266.667 433.333C248.257 433.333 233.333 418.41 233.333 400C233.333 381.59 248.257 366.667 266.667 366.667C285.076 366.667 300 381.59 300 400Z" fill="white"/>
<path d="M433.333 400C433.333 418.41 418.41 433.333 400 433.333C381.59 433.333 366.667 418.41 366.667 400C366.667 381.59 381.59 366.667 400 366.667C418.41 366.667 433.333 381.59 433.333 400Z" fill="white"/>
<path d="M566.667 400C566.667 418.41 551.743 433.333 533.333 433.333C514.923 433.333 500 418.41 500 400C500 381.59 514.923 366.667 533.333 366.667C551.743 366.667 566.667 381.59 566.667 400Z" fill="white"/>
<path d="M733.333 400C733.333 557.133 733.333 635.703 684.516 684.517C635.703 733.333 557.133 733.333 400 733.333C242.865 733.333 164.297 733.333 115.482 684.517C66.6665 635.703 66.6665 557.133 66.6665 400C66.6665 242.865 66.6665 164.298 115.482 115.482C164.297 66.6666 242.865 66.6666 400 66.6666C557.133 66.6666 635.703 66.6666 684.516 115.482C716.976 147.94 727.853 193.552 731.496 266.667" stroke="white" stroke-width="50" stroke-linecap="round"/>
</svg>
