<svg width="800" height="800" viewBox="0 0 800 800" fill="none" xmlns="http://www.w3.org/2000/svg">
<path d="M532.583 290.484L517.85 275.403C452.763 208.773 347.236 208.773 282.149 275.403C217.061 342.033 217.061 450.063 282.149 516.693C347.236 583.323 452.763 583.323 517.85 516.693C555.7 477.947 571.54 425.197 565.37 374.733M532.583 290.484H444.193M532.583 290.484V200" stroke="white" stroke-width="50" stroke-linecap="round" stroke-linejoin="round"/>
<path d="M233.333 111.261C282.362 82.899 339.286 66.6667 400 66.6667C584.093 66.6667 733.333 215.905 733.333 400C733.333 584.093 584.093 733.333 400 733.333C215.905 733.333 66.6665 584.093 66.6665 400C66.6665 339.287 82.8988 282.362 111.261 233.333" stroke="white" stroke-width="50" stroke-linecap="round"/>
</svg>
