<svg width="800" height="800" viewBox="0 0 800 800" fill="none" xmlns="http://www.w3.org/2000/svg">
<path d="M400 496V560M400 272V208M400 208C426.509 208 448 186.51 448 160C448 133.49 426.509 112 400 112C373.491 112 352 133.49 352 160C352 186.51 373.491 208 400 208ZM656 656V624C656 588.653 627.347 560 592 560H208C172.654 560 144 588.653 144 624V656H656ZM368 384C368 401.674 353.674 416 336 416C318.327 416 304 401.674 304 384C304 366.326 318.327 352 336 352C353.674 352 368 366.326 368 384ZM496 384C496 401.674 481.674 416 464 416C446.326 416 432 401.674 432 384C432 366.326 446.326 352 464 352C481.674 352 496 366.326 496 384ZM272 496H528C563.347 496 592 467.347 592 432V336C592 300.654 563.347 272 528 272H272C236.654 272 208 300.654 208 336V432C208 467.347 236.654 496 272 496Z" stroke="white" stroke-width="38.4"/>
</svg>
