<svg width="800" height="800" viewBox="0 0 800 800" fill="none" xmlns="http://www.w3.org/2000/svg">
<path fill-rule="evenodd" clip-rule="evenodd" d="M367.123 92.2276C379.3 63.0073 420.693 63.0073 432.87 92.2276L497.007 246.154C502.18 258.575 514.317 266.667 527.773 266.667H696.433C727.447 266.667 742.977 304.161 721.047 326.089L584.637 462.5C576.077 471.06 572.833 483.587 576.157 495.227L630.253 684.563C639.387 716.533 603.74 742.557 576.073 724.113L418.487 619.053C407.29 611.59 392.703 611.59 381.507 619.057L224.181 723.94C196.428 742.44 160.663 716.333 169.826 684.263L223.836 495.227C227.162 483.587 223.916 471.06 215.356 462.5L79.6197 326.763C57.4427 304.586 73.1494 266.667 104.513 266.667H272.219C285.676 266.667 297.813 258.575 302.988 246.154L367.123 92.2276Z" fill="white"/>
</svg>
