<svg width="800" height="800" viewBox="0 0 800 800" fill="none" xmlns="http://www.w3.org/2000/svg">
<path d="M333.333 466.667C370.153 466.667 400 496.513 400 533.333C400 570.153 370.153 600 333.333 600C296.514 600 266.667 570.153 266.667 533.333C266.667 496.513 296.514 466.667 333.333 466.667Z" stroke="white" stroke-width="50"/>
<path d="M400 266.667C400 229.848 429.848 200 466.667 200C503.486 200 533.333 229.848 533.333 266.667C533.333 303.486 503.486 333.333 466.667 333.333C429.848 333.333 400 303.486 400 266.667Z" stroke="white" stroke-width="50"/>
<path d="M466.667 533.333H633.333" stroke="white" stroke-width="50" stroke-linecap="round"/>
<path d="M333.333 266.667H166.667" stroke="white" stroke-width="50" stroke-linecap="round"/>
<path d="M166.667 533.333H200" stroke="white" stroke-width="50" stroke-linecap="round"/>
<path d="M633.333 266.667H600" stroke="white" stroke-width="50" stroke-linecap="round"/>
<path d="M733.333 400C733.333 557.133 733.333 635.703 684.516 684.517C635.703 733.333 557.133 733.333 400 733.333C242.865 733.333 164.297 733.333 115.482 684.517C66.6665 635.703 66.6665 557.133 66.6665 400C66.6665 242.865 66.6665 164.298 115.482 115.482C164.297 66.6667 242.865 66.6667 400 66.6667C557.133 66.6667 635.703 66.6667 684.516 115.482C716.976 147.94 727.853 193.552 731.496 266.667" stroke="white" stroke-width="50" stroke-linecap="round"/>
</svg>
