<svg width="800" height="800" viewBox="0 0 800 800" fill="none" xmlns="http://www.w3.org/2000/svg">
<path d="M583.333 316.675H332.051C268.326 316.675 216.667 368.333 216.667 432.06C216.667 495.787 268.326 547.443 332.051 547.443H483.333M583.333 316.675L508.333 247.445M583.333 316.675L508.333 385.907" stroke="white" stroke-width="50" stroke-linecap="round" stroke-linejoin="round"/>
<path d="M733.333 400C733.333 557.133 733.333 635.703 684.516 684.517C635.703 733.333 557.133 733.333 400 733.333C242.865 733.333 164.297 733.333 115.482 684.517C66.6665 635.703 66.6665 557.133 66.6665 400C66.6665 242.865 66.6665 164.298 115.482 115.482C164.297 66.6667 242.865 66.6667 400 66.6667C557.133 66.6667 635.703 66.6667 684.516 115.482C716.976 147.94 727.853 193.552 731.496 266.667" stroke="white" stroke-width="50" stroke-linecap="round"/>
</svg>
